<svg width="512" height="512" viewBox="0 0 512 512" fill="none" xmlns="http://www.w3.org/2000/svg">
<path d="M0 256C0 114.615 114.615 0 256 0V0C397.385 0 512 114.615 512 256V256C512 397.385 397.385 512 256 512V512C114.615 512 0 397.385 0 256V256Z" fill="#02F58C"/>
<path d="M134.601 121H334.17L201.962 253.21C198.678 256.488 194.227 258.331 189.587 258.333C186.273 258.333 183.026 257.391 180.225 255.619C177.424 253.846 175.184 251.315 173.766 248.32L122.546 140.025C121.585 137.993 121.154 135.751 121.293 133.508C121.432 131.265 122.135 129.093 123.338 127.195C124.541 125.296 126.204 123.733 128.173 122.65C130.143 121.567 132.354 120.999 134.601 121ZM121 423V294.36C121.002 291.064 122.313 287.905 124.644 285.576C126.975 283.247 130.135 281.938 133.43 281.938H262.062L121 423ZM294.856 249.154C288.972 255.029 280.998 258.33 272.684 258.333H230.091L358.244 130.189C361.155 127.276 364.612 124.966 368.416 123.389C372.221 121.812 376.298 121 380.417 121H423L294.856 249.154Z" fill="#111111"/>
</svg>
