<svg width="20" height="21" viewBox="0 0 20 21" fill="none" xmlns="http://www.w3.org/2000/svg">
<path d="M19.9458 10.5002C19.9458 15.994 15.4923 20.4476 9.99858 20.4476C4.5048 20.4476 0.0512695 15.994 0.0512695 10.5002C0.0512695 5.00651 4.5048 0.552979 9.99858 0.552979C15.4922 0.552979 19.9458 5.00651 19.9458 10.5002Z" fill="#5464DC"/>
<g opacity="0.8">
<path d="M9.96671 5.88452L9.90527 6.09335V12.1532L9.96671 12.2145L12.7796 10.5518L9.96671 5.88452Z" fill="#BBC2F0"/>
<path d="M9.96672 5.88452L7.15381 10.5518L9.96672 12.2146V9.27329V5.88452Z" fill="white"/>
<path d="M9.96675 13.1296L9.93213 13.1718V15.3305L9.96675 15.4316L12.7814 11.4678L9.96675 13.1296Z" fill="#C2C8F1"/>
<path d="M9.96672 15.4316V13.1296L7.15381 11.4678L9.96672 15.4316Z" fill="white"/>
<path d="M9.9668 12.2144L12.7797 10.5517L9.9668 9.27319V12.2144Z" fill="#7683E2"/>
<path d="M7.15381 10.5517L9.96668 12.2144V9.27319L7.15381 10.5517Z" fill="#BAC2F1"/>
</g>
</svg>
