<svg width="40" height="40" viewBox="0 0 40 40" fill="none" xmlns="http://www.w3.org/2000/svg">
<g id="fuel_icon_code_green 1">
<path id="Vector" d="M4.58333 2.5C3.43333 2.5 2.5 3.43333 2.5 4.58333V37.5H29.1667L37.5 29.1667V2.5H4.58333ZM19.1667 5.83333C20.0833 5.83333 20.825 6.575 20.825 7.49167C20.825 8.40833 20.0833 9.15 19.1667 9.15C18.25 9.15 17.5083 8.40833 17.5083 7.49167C17.5083 6.575 18.25 5.83333 19.1667 5.83333ZM13.7542 5.83333C14.6708 5.83333 15.4125 6.575 15.4125 7.49167C15.4125 8.40833 14.6708 9.15 13.7542 9.15C12.8375 9.15 12.0958 8.40833 12.0958 7.49167C12.0958 6.575 12.8375 5.83333 13.7542 5.83333ZM8.34167 5.83333C9.25833 5.83333 10 6.575 10 7.49167C10 8.40833 9.25833 9.15 8.34167 9.15C7.425 9.15 6.68333 8.40833 6.68333 7.49167C6.68333 6.575 7.425 5.83333 8.34167 5.83333ZM15.2938 26.4729L8.38333 33.3833L6.61667 31.6167L13.2333 25L6.61667 18.3833L8.38333 16.6167L15.2938 23.5271C16.1083 24.3417 16.1083 25.6604 15.2938 26.4729ZM27.5 33.3833H16.6667V30.8833H27.5V33.3833Z" fill="#00F58C"/>
</g>
</svg>
