<svg width="40" height="40" viewBox="0 0 40 40" fill="none" xmlns="http://www.w3.org/2000/svg">
<g id="fuel_icon_brandbook_green 1">
<path id="Vector" d="M36.0271 31.75C36.4 31.6521 36.6667 31.325 36.6667 30.9396V1.66669H7.5C5.19792 1.66669 3.33334 3.53127 3.33334 5.83335V34.1667C3.33334 36.4688 5.19792 38.3334 7.5 38.3334H35.8333C36.2938 38.3334 36.6667 37.9604 36.6667 37.5V37.3938C36.6667 37.0084 36.4 36.6834 36.0271 36.5834C34.9563 36.3 34.1667 35.325 34.1667 34.1667C34.1667 33.0084 34.9563 32.0313 36.0271 31.75ZM27.8333 8.33335H30L22.2771 16.0563C21.9438 16.3896 21.5 16.5729 21.0292 16.5729H18.8625L26.5854 8.85002C26.9188 8.51669 27.3625 8.33335 27.8333 8.33335ZM11.7792 8.62294C11.8938 8.44169 12.0917 8.33335 12.3063 8.33335H24.3875L16.4083 16.3125C16.2396 16.4813 16.0167 16.5729 15.7792 16.5729C15.4375 16.5729 15.1229 16.3729 14.9771 16.0646L11.7417 9.22502C11.65 9.03127 11.6625 8.80627 11.7792 8.62294ZM11.6646 19.0646C11.6646 18.7521 11.9188 18.4959 12.2333 18.4959H19.8354L11.6667 26.6646V19.0625L11.6646 19.0646ZM33.3396 36.6667H7.5C6.11875 36.6667 5 35.5479 5 34.1667C5 32.7854 6.11875 31.6667 7.5 31.6667H33.3417C32.8167 32.3646 32.5 33.2271 32.5 34.1667C32.5 35.1063 32.8167 35.9688 33.3417 36.6667H33.3396Z" fill="#00F58C"/>
<path id="Vector_2" d="M7.5 33.3333C7.03958 33.3333 6.66666 33.7062 6.66666 34.1666C6.66666 34.6271 7.03958 35 7.5 35H30.8333C30.5729 34.475 30.5729 33.8583 30.8333 33.3333H7.5Z" fill="#00F58C"/>
</g>
</svg>
