<svg xmlns="http://www.w3.org/2000/svg" width="332" height="283" viewBox="0 0 332 283" fill="none">
  <path opacity="0.75" d="M215.181 -66L41.3814 110.02C37.0919 114.364 31.2294 116.826 25.1525 116.826C16.2874 116.826 8.13723 111.613 4.34811 103.503L-62.9982 -40.6578C-68.5031 -52.46 -59.9955 -66 -47.1268 -66H215.181ZM-65 336V164.759C-65 155.636 -57.7077 148.25 -48.6996 148.25H120.381L-65 336ZM134.394 116.826H78.4147L246.852 -53.7633C254.573 -61.5832 265.083 -66 276.021 -66H332L163.563 104.589C155.842 112.409 145.332 116.826 134.394 116.826Z" fill="url(#paint0_linear_380_1501)"/>
  <defs>
    <linearGradient id="paint0_linear_380_1501" x1="271" y1="-46" x2="5.99998" y2="208" gradientUnits="userSpaceOnUse">
      <stop stop-color="#242525"/>
      <stop offset="1" stop-color="#0B0B0B"/>
    </linearGradient>
  </defs>
</svg>
