<svg width="226" height="201" viewBox="0 0 226 201" fill="none" xmlns="http://www.w3.org/2000/svg">
<g opacity="0.1" filter="url(#filter0_d_7476_74)">
<rect x="60" y="35" width="106" height="106" rx="53" fill="#331E0B" fill-opacity="0.6" shape-rendering="crispEdges"/>
<rect x="60.75" y="35.75" width="104.5" height="104.5" rx="52.25" stroke="url(#paint0_linear_7476_74)" stroke-width="1.5" shape-rendering="crispEdges"/>
</g>
<g opacity="0.6" filter="url(#filter1_f_7476_74)">
<rect x="33" y="8" width="160" height="160" rx="80" fill="#331E0B"/>
<rect x="35.5" y="10.5" width="155" height="155" rx="77.5" stroke="url(#paint1_linear_7476_74)" stroke-width="5"/>
</g>
<g filter="url(#filter2_d_7476_74)">
<rect x="81" y="56" width="64" height="64" rx="32" fill="#331E0B"/>
<rect x="82" y="57" width="62" height="62" rx="31" stroke="url(#paint2_linear_7476_74)" stroke-width="2"/>
<path fill-rule="evenodd" clip-rule="evenodd" d="M105.22 80.2197C105.513 79.9268 105.987 79.9268 106.28 80.2197L113 86.9393L119.72 80.2197C120.013 79.9268 120.487 79.9268 120.78 80.2197C121.073 80.5126 121.073 80.9874 120.78 81.2803L114.061 88L120.78 94.7197C121.073 95.0126 121.073 95.4874 120.78 95.7803C120.487 96.0732 120.013 96.0732 119.72 95.7803L113 89.0607L106.28 95.7803C105.987 96.0732 105.513 96.0732 105.22 95.7803C104.927 95.4874 104.927 95.0126 105.22 94.7197L111.939 88L105.22 81.2803C104.927 80.9874 104.927 80.5126 105.22 80.2197Z" fill="#FFA057"/>
</g>
<defs>
<filter id="filter0_d_7476_74" x="51.7188" y="28.375" width="122.562" height="122.562" filterUnits="userSpaceOnUse" color-interpolation-filters="sRGB">
<feFlood flood-opacity="0" result="BackgroundImageFix"/>
<feColorMatrix in="SourceAlpha" type="matrix" values="0 0 0 0 0 0 0 0 0 0 0 0 0 0 0 0 0 0 127 0" result="hardAlpha"/>
<feOffset dy="1.65625"/>
<feGaussianBlur stdDeviation="4.14062"/>
<feComposite in2="hardAlpha" operator="out"/>
<feColorMatrix type="matrix" values="0 0 0 0 0 0 0 0 0 0 0 0 0 0 0 0 0 0 0.07 0"/>
<feBlend mode="normal" in2="BackgroundImageFix" result="effect1_dropShadow_7476_74"/>
<feBlend mode="normal" in="SourceGraphic" in2="effect1_dropShadow_7476_74" result="shape"/>
</filter>
<filter id="filter1_f_7476_74" x="0.5" y="-24.5" width="225" height="225" filterUnits="userSpaceOnUse" color-interpolation-filters="sRGB">
<feFlood flood-opacity="0" result="BackgroundImageFix"/>
<feBlend mode="normal" in="SourceGraphic" in2="BackgroundImageFix" result="shape"/>
<feGaussianBlur stdDeviation="16.25" result="effect1_foregroundBlur_7476_74"/>
</filter>
<filter id="filter2_d_7476_74" x="76" y="52" width="74" height="74" filterUnits="userSpaceOnUse" color-interpolation-filters="sRGB">
<feFlood flood-opacity="0" result="BackgroundImageFix"/>
<feColorMatrix in="SourceAlpha" type="matrix" values="0 0 0 0 0 0 0 0 0 0 0 0 0 0 0 0 0 0 127 0" result="hardAlpha"/>
<feOffset dy="1"/>
<feGaussianBlur stdDeviation="2.5"/>
<feComposite in2="hardAlpha" operator="out"/>
<feColorMatrix type="matrix" values="0 0 0 0 0 0 0 0 0 0 0 0 0 0 0 0 0 0 0.07 0"/>
<feBlend mode="normal" in2="BackgroundImageFix" result="effect1_dropShadow_7476_74"/>
<feBlend mode="normal" in="SourceGraphic" in2="effect1_dropShadow_7476_74" result="shape"/>
</filter>
<linearGradient id="paint0_linear_7476_74" x1="113" y1="35" x2="113" y2="141" gradientUnits="userSpaceOnUse">
<stop stop-color="#FFA057"/>
<stop offset="1" stop-color="#331E0B"/>
</linearGradient>
<linearGradient id="paint1_linear_7476_74" x1="113" y1="8" x2="113" y2="168" gradientUnits="userSpaceOnUse">
<stop stop-color="#FFA057"/>
<stop offset="1" stop-color="#331E0B"/>
</linearGradient>
<linearGradient id="paint2_linear_7476_74" x1="113" y1="56" x2="113" y2="120" gradientUnits="userSpaceOnUse">
<stop stop-color="#FFA057"/>
<stop offset="1" stop-color="#331E0B"/>
</linearGradient>
</defs>
</svg>
