<?xml version="1.0" encoding="UTF-8" standalone="no"?>
<!-- Created with Inkscape (http://www.inkscape.org/) -->

<svg
   version="1.1"
   id="svg1353"
   xml:space="preserve"
   width="682.66669"
   height="682.66669"
   viewBox="0 0 682.66669 682.66669"
   xmlns="http://www.w3.org/2000/svg"
   xmlns:svg="http://www.w3.org/2000/svg"><defs
     id="defs1357"><clipPath
       clipPathUnits="userSpaceOnUse"
       id="clipPath1367"><path
         d="M 0,512 H 512 V 0 H 0 Z"
         id="path1365" /></clipPath></defs><g
     id="g1359"
     transform="matrix(1.3333333,0,0,-1.3333333,0,682.66667)"><g
       id="g1361"><g
         id="g1363"
         clip-path="url(#clipPath1367)"><g
           id="g1369"
           transform="translate(167.3481,274.7114)"><path
             d="m 0,0 h -52.07 c -5.492,0 -10.363,-3.525 -12.08,-8.741 l -39.221,-119.136"
             style="fill:none;stroke:currentColor;stroke-linecap:round;stroke-linejoin:round;stroke-miterlimit:10;stroke-dasharray:none;stroke-opacity:1"
             id="path1371" /></g><g
           id="g1373"
           transform="translate(448.0234,146.8345)"><path
             d="m 0,0 -39.222,119.136 c -1.717,5.216 -6.588,8.741 -12.08,8.741 h -51.548"
             style="fill:none;stroke:currentColor;stroke-linecap:round;stroke-linejoin:round;stroke-miterlimit:10;stroke-dasharray:none;stroke-opacity:1"
             id="path1375" /></g><g
           id="g1377"
           transform="translate(496.3525,83.707)"><path
             d="m 0,0 v 59.15 c 0,1.351 -0.215,2.694 -0.638,3.977 l -34.349,104.337"
             style="fill:none;stroke:currentColor;stroke-linecap:round;stroke-linejoin:round;stroke-miterlimit:10;stroke-dasharray:none;stroke-opacity:1"
             id="path1379" /></g><g
           id="g1381"
           transform="translate(206.7305,351.2227)"><path
             d="m 0,0 h -113.955 c -5.491,0 -10.363,-3.525 -12.08,-8.741 l -64.41,-195.648 c -0.423,-1.283 -0.638,-2.625 -0.638,-3.976 v -39.151"
             style="fill:none;stroke:currentColor;stroke-linecap:round;stroke-linejoin:round;stroke-miterlimit:10;stroke-dasharray:none;stroke-opacity:1"
             id="path1383" /></g><g
           id="g1385"
           transform="translate(449.791,286.3291)"><path
             d="m 0,0 -18.486,56.153 c -1.718,5.216 -6.589,8.741 -12.08,8.741 h -112.468"
             style="fill:none;stroke:currentColor;stroke-linecap:round;stroke-linejoin:round;stroke-miterlimit:10;stroke-dasharray:none;stroke-opacity:1"
             id="path1387" /></g><g
           id="g1389"
           transform="translate(15.6475,52.4072)"><path
             d="m 0,0 v -32.189 c 0,-7.024 5.694,-12.718 12.718,-12.718 h 455.269 c 7.024,0 12.718,5.694 12.718,12.718 V 78.175 c 0,7.024 -5.694,12.718 -12.718,12.718 h -93.901 c -4.86,0 -9.295,-2.77 -11.428,-7.137 l -18.452,-37.78 c -2.132,-4.368 -6.567,-7.137 -11.427,-7.137 H 147.926 c -4.86,0 -9.294,2.769 -11.427,7.137 l -18.452,37.78 c -2.133,4.367 -6.568,7.137 -11.428,7.137 H 12.718 C 5.694,90.893 0,85.199 0,78.175 V 37.026"
             style="fill:none;stroke:currentColor;stroke-linecap:round;stroke-linejoin:round;stroke-miterlimit:10;stroke-dasharray:none;stroke-opacity:1"
             id="path1391" /></g><g
           id="g1393"
           transform="translate(53.9116,42.1069)"><path
             d="M 0,0 H 27.446"
             style="fill:none;stroke:currentColor;stroke-linecap:round;stroke-linejoin:round;stroke-miterlimit:10;stroke-dasharray:none;stroke-opacity:1"
             id="path1395" /></g><g
           id="g1397"
           transform="translate(53.9116,65.5356)"><path
             d="M 0,0 H 27.446"
             style="fill:none;stroke:currentColor;stroke-linecap:round;stroke-linejoin:round;stroke-miterlimit:10;stroke-dasharray:none;stroke-opacity:1"
             id="path1399" /></g><g
           id="g1401"
           transform="translate(408.8018,265.9707)"><path
             d="M 0,0 V 85.252"
             style="fill:none;stroke:currentColor;stroke-linecap:round;stroke-linejoin:round;stroke-miterlimit:10;stroke-dasharray:none;stroke-opacity:1"
             id="path1403" /></g><g
           id="g1405"
           transform="translate(103.1982,265.9707)"><path
             d="M 0,0 V 85.252"
             style="fill:none;stroke:currentColor;stroke-linecap:round;stroke-linejoin:round;stroke-miterlimit:10;stroke-dasharray:none;stroke-opacity:1"
             id="path1407" /></g><g
           id="g1409"
           transform="translate(273.2979,253.3564)"><path
             d="M 0,0 C -4.614,3.938 -11.087,6.409 -18.278,6.431 -25.469,6.452 -31.957,4.02 -36.594,0.109"
             style="fill:none;stroke:currentColor;stroke-linecap:round;stroke-linejoin:round;stroke-miterlimit:10;stroke-dasharray:none;stroke-opacity:1"
             id="path1411" /></g><g
           id="g1413"
           transform="translate(297.3511,287.937)"><path
             d="M 0,0 H 0.09"
             style="fill:none;stroke:currentColor;stroke-linecap:round;stroke-linejoin:round;stroke-miterlimit:10;stroke-dasharray:none;stroke-opacity:1"
             id="path1415" /></g><g
           id="g1417"
           transform="translate(214.5586,287.937)"><path
             d="M 0,0 H 0.089"
             style="fill:none;stroke:currentColor;stroke-linecap:round;stroke-linejoin:round;stroke-miterlimit:10;stroke-dasharray:none;stroke-opacity:1"
             id="path1419" /></g><g
           id="g1421"
           transform="translate(297.3418,287.937)"><path
             d="M 0,0 H 0.089"
             style="fill:none;stroke:currentColor;stroke-linecap:round;stroke-linejoin:round;stroke-miterlimit:10;stroke-dasharray:none;stroke-opacity:1"
             id="path1423" /></g><g
           id="g1425"
           transform="translate(274.0493,194.1177)"><path
             d="m 0,0 c 39.399,8.311 68.974,43.271 68.974,85.144 0,48.062 -38.961,87.024 -87.023,87.024 -48.062,0 -87.024,-38.962 -87.024,-87.024 0,-41.543 29.112,-76.282 68.047,-84.942"
             style="fill:none;stroke:currentColor;stroke-linecap:round;stroke-linejoin:round;stroke-miterlimit:10;stroke-dasharray:none;stroke-opacity:1"
             id="path1427" /></g><g
           id="g1429"
           transform="translate(216.3296,504.5)"><path
             d="M 0,0 -22.732,-22.732"
             style="fill:none;stroke:currentColor;stroke-linecap:round;stroke-linejoin:round;stroke-miterlimit:10;stroke-dasharray:none;stroke-opacity:1"
             id="path1431" /></g><g
           id="g1433"
           transform="translate(216.3296,481.7681)"><path
             d="M 0,0 -22.732,22.732"
             style="fill:none;stroke:currentColor;stroke-linecap:round;stroke-linejoin:round;stroke-miterlimit:10;stroke-dasharray:none;stroke-opacity:1"
             id="path1435" /></g><g
           id="g1437"
           transform="translate(108.1133,432.4854)"><path
             d="M 0,0 C 0,14.771 11.974,26.745 26.745,26.745 41.516,26.745 53.49,14.771 53.49,0 53.49,-14.771 41.516,-26.746 26.745,-26.746 11.974,-26.746 0,-14.771 0,0"
             style="fill:none;stroke:currentColor;stroke-linecap:round;stroke-linejoin:round;stroke-miterlimit:10;stroke-dasharray:none;stroke-opacity:1"
             id="path1439" /></g><g
           id="g1441"
           transform="translate(385.96,430.9028)"><path
             d="M 0,0 -22.732,-22.732"
             style="fill:none;stroke:currentColor;stroke-linecap:round;stroke-linejoin:round;stroke-miterlimit:10;stroke-dasharray:none;stroke-opacity:1"
             id="path1443" /></g><g
           id="g1445"
           transform="translate(385.96,408.1709)"><path
             d="M 0,0 -22.732,22.732"
             style="fill:none;stroke:currentColor;stroke-linecap:round;stroke-linejoin:round;stroke-miterlimit:10;stroke-dasharray:none;stroke-opacity:1"
             id="path1447" /></g><g
           id="g1449"
           transform="translate(255.6104,411.5015)"><path
             d="M 0,0 0.066,22.333"
             style="fill:none;stroke:currentColor;stroke-linecap:round;stroke-linejoin:round;stroke-miterlimit:10;stroke-dasharray:none;stroke-opacity:1"
             id="path1451" /></g><g
           id="g1453"
           transform="translate(222.3037,401.9834)"><path
             d="M 0,0 -11.604,19.374"
             style="fill:none;stroke:currentColor;stroke-linecap:round;stroke-linejoin:round;stroke-miterlimit:10;stroke-dasharray:none;stroke-opacity:1"
             id="path1455" /></g><g
           id="g1457"
           transform="translate(300.5786,420.9873)"><path
             d="M 0,0 -11.72,-19.31"
             style="fill:none;stroke:currentColor;stroke-linecap:round;stroke-linejoin:round;stroke-miterlimit:10;stroke-dasharray:none;stroke-opacity:1"
             id="path1459" /></g><g
           id="g1461"
           transform="translate(345.7041,473.7534)"><path
             d="m 0,0 c 0,-11.733 -9.511,-21.244 -21.244,-21.244 -11.733,0 -21.244,9.511 -21.244,21.244 0,11.733 9.511,21.244 21.244,21.244 C -9.511,21.244 0,11.733 0,0 Z"
             style="fill:none;stroke:currentColor;stroke-linecap:round;stroke-linejoin:round;stroke-miterlimit:10;stroke-dasharray:none;stroke-opacity:1"
             id="path1463" /></g></g></g></g></svg>
